<?xml version="1.0"?>
<svg xmlns="http://www.w3.org/2000/svg" xmlns:xlink="http://www.w3.org/1999/xlink" xmlns:svgjs="http://svgjs.com/svgjs" version="1.1" width="512" height="512" x="0" y="0" viewBox="0 0 512 512" style="enable-background:new 0 0 512 512" xml:space="preserve" class=""><g><path xmlns="http://www.w3.org/2000/svg" d="m152 64v-29.754l-18.49 4.623-16.566 33.131h19.056a8 8 0 0 1 8 8v27.056l48 24v-16.156l-38.146-45.779a8 8 0 0 1 -1.854-5.121z" fill="#103178" data-original="#000000" style="" class=""/><path xmlns="http://www.w3.org/2000/svg" d="m96 200h48v16h-48z" fill="#103178" data-original="#000000" style="" class=""/><path xmlns="http://www.w3.org/2000/svg" d="m170.414 64 29.586 35.504 29.586-35.504z" fill="#103178" data-original="#000000" style="" class=""/><path xmlns="http://www.w3.org/2000/svg" d="m368 136v-.446a55.7 55.7 0 0 0 -30.956-50.088l-39.155-19.578 5.266 10.534a8 8 0 0 1 -7.155 11.578h-24v24a8 8 0 0 1 -4.422 7.155l-59.578 29.789v251.056h64v-176a7.977 7.977 0 0 1 .239-1.94l7.761-31.043v-47.017a8 8 0 0 1 8-8z" fill="#103178" data-original="#000000" style="" class=""/><path xmlns="http://www.w3.org/2000/svg" d="m328 152h16v32h-16z" fill="#103178" data-original="#000000" style="" class=""/><path xmlns="http://www.w3.org/2000/svg" d="m96 248v16h48v-32h-48z" fill="#103178" data-original="#000000" style="" class=""/><path xmlns="http://www.w3.org/2000/svg" d="m360 152h16v32h-16z" fill="#103178" data-original="#000000" style="" class=""/><path xmlns="http://www.w3.org/2000/svg" d="m392 152h16v32h-16z" fill="#103178" data-original="#000000" style="" class=""/><path xmlns="http://www.w3.org/2000/svg" d="m424 152h16v32h-16z" fill="#103178" data-original="#000000" style="" class=""/><path xmlns="http://www.w3.org/2000/svg" d="m456 152h16v32h-16z" fill="#103178" data-original="#000000" style="" class=""/><path xmlns="http://www.w3.org/2000/svg" d="m296 152h16v32h-16z" fill="#103178" data-original="#000000" style="" class=""/><path xmlns="http://www.w3.org/2000/svg" d="m32 224h48v16h-48z" fill="#103178" data-original="#000000" style="" class=""/><path xmlns="http://www.w3.org/2000/svg" d="m208 131.056 48-24v-27.056a8 8 0 0 1 8-8h19.056l-16.566-33.131-18.49-4.623v29.754a8 8 0 0 1 -1.854 5.121l-38.146 45.779z" fill="#103178" data-original="#000000" style="" class=""/><path xmlns="http://www.w3.org/2000/svg" d="m128 112v-24h-24a8 8 0 0 1 -7.155-11.578l5.267-10.534-39.156 19.578a55.7 55.7 0 0 0 -30.956 50.088v72.446h48v-48a8 8 0 0 1 16 0v24h56a8 8 0 0 1 8 8v80a8 8 0 0 1 -8 8h-56v120h96v-251.056l-59.578-29.789a8 8 0 0 1 -4.422-7.155z" fill="#103178" data-original="#000000" style="" class=""/><path xmlns="http://www.w3.org/2000/svg" d="m168 32h64v16h-64z" fill="#103178" data-original="#000000" style="" class=""/><path xmlns="http://www.w3.org/2000/svg" d="m288 480h64.902l1.92-16h-66.822z" fill="#103178" data-original="#000000" style="" class=""/><path xmlns="http://www.w3.org/2000/svg" d="m415.098 480h64.902v-16h-66.822z" fill="#103178" data-original="#000000" style="" class=""/><path xmlns="http://www.w3.org/2000/svg" d="m294.246 200-6.246 24.985v223.015h68.742l19.315-160.953a8 8 0 0 1 15.886 0l19.315 160.953h68.742v-223.015l-6.246-24.985z" fill="#103178" data-original="#000000" style="" class=""/></g></svg>
